<svg xmlns="http://www.w3.org/2000/svg" viewBox="0 0 690 145" fill="none">
  <title>わくわくずかん</title>
  <defs>
    <filter id="wax" x="-5%" y="-14%" width="110%" height="128%" color-interpolation-filters="sRGB">
      <feTurbulence type="fractalNoise" baseFrequency=".025 .14" numOctaves="3" seed="13" result="edge"/>
      <feDisplacementMap in="SourceGraphic" in2="edge" scale="3.8" result="rough"/>
      <feTurbulence type="fractalNoise" baseFrequency=".24 .69" numOctaves="4" seed="29" result="grain"/>
      <feComposite in="grain" in2="rough" operator="in" result="maskedGrain"/>
      <feComposite in="rough" in2="maskedGrain" operator="arithmetic" k1=".82" k2=".72" k3=".28" result="waxFill"/>
      <feBlend in="rough" in2="waxFill" mode="multiply"/>
    </filter>
  </defs>
  <g stroke="#a64f3e" stroke-width="14" stroke-linecap="round" stroke-linejoin="round" filter="url(#wax)">
    <g transform="translate(2 4) rotate(-3 48 70)"><path d="M27 20 C20 47 21 91 29 126"/><path d="M9 55 C26 51 43 43 57 45"/><path d="M29 76 C45 50 73 42 84 59 C99 82 75 111 46 108"/></g>
    <g transform="translate(98 -1) rotate(3 45 72)"><path d="M78 17 C60 35 38 54 20 67 C18 72 42 84 58 99 C69 109 77 120 84 130"/></g>
    <g transform="translate(194 7) rotate(-5 48 70) scale(.94 1.05)"><path d="M30 18 C24 45 20 91 31 125"/><path d="M10 61 C29 52 43 47 61 48"/><path d="M31 79 C51 48 79 45 88 65 C98 89 72 113 43 105"/></g>
    <g transform="translate(291 -3) rotate(5 47 72) scale(1.04 .96)"><path d="M79 20 C60 40 39 55 18 70 C34 82 60 101 82 129"/></g>
    <g transform="translate(391 5) rotate(-2 49 72)"><path d="M10 48 C34 44 69 46 90 43"/><path d="M59 22 C54 48 55 67 64 80 C73 98 58 122 30 119"/><path d="M48 73 C58 63 72 70 70 82 C68 94 51 96 47 84 C45 79 45 76 48 73"/><path d="M70 13 L78 25"/><path d="M84 10 L92 22"/></g>
    <g transform="translate(491 -2) rotate(3 48 72)"><path d="M12 59 C35 54 58 54 65 66 C72 82 61 112 43 124"/><path d="M49 25 C45 53 34 91 21 119"/><path d="M77 47 C89 60 94 80 93 103"/></g>
    <g transform="translate(587 6) rotate(-4 50 72) scale(.94 1.02)"><path d="M10 122 C24 91 38 55 54 27 C48 55 43 84 51 99 C60 114 71 84 82 76 C94 67 94 91 100 106 C106 121 119 119 128 107"/></g>
  </g>
</svg>
